<svg width="578" height="44" viewBox="0 0 578 44" fill="none" xmlns="http://www.w3.org/2000/svg">
<rect width="578" height="44" rx="8" fill="#282828"/>
<path d="M68.944 28.128C68.0907 28.128 67.2747 28 66.496 27.744C65.7173 27.4773 65.104 27.136 64.656 26.72L65.248 25.472C65.6747 25.8453 66.2187 26.1547 66.88 26.4C67.5413 26.6453 68.2293 26.768 68.944 26.768C69.5947 26.768 70.1227 26.6933 70.528 26.544C70.9333 26.3947 71.232 26.192 71.424 25.936C71.616 25.6693 71.712 25.3707 71.712 25.04C71.712 24.656 71.584 24.3467 71.328 24.112C71.0827 23.8773 70.7573 23.6907 70.352 23.552C69.9573 23.4027 69.52 23.2747 69.04 23.168C68.56 23.0613 68.0747 22.9387 67.584 22.8C67.104 22.6507 66.6613 22.464 66.256 22.24C65.8613 22.016 65.5413 21.7173 65.296 21.344C65.0507 20.96 64.928 20.4693 64.928 19.872C64.928 19.296 65.0773 18.768 65.376 18.288C65.6853 17.7973 66.1547 17.408 66.784 17.12C67.424 16.8213 68.2347 16.672 69.216 16.672C69.8667 16.672 70.512 16.7573 71.152 16.928C71.792 17.0987 72.3467 17.344 72.816 17.664L72.288 18.944C71.808 18.624 71.3013 18.3947 70.768 18.256C70.2347 18.1067 69.7173 18.032 69.216 18.032C68.5867 18.032 68.0693 18.112 67.664 18.272C67.2587 18.432 66.96 18.6453 66.768 18.912C66.5867 19.1787 66.496 19.4773 66.496 19.808C66.496 20.2027 66.6187 20.5173 66.864 20.752C67.12 20.9867 67.4453 21.1733 67.84 21.312C68.2453 21.4507 68.688 21.5787 69.168 21.696C69.648 21.8027 70.128 21.9253 70.608 22.064C71.0987 22.2027 71.5413 22.384 71.936 22.608C72.3413 22.832 72.6667 23.1307 72.912 23.504C73.1573 23.8773 73.28 24.3573 73.28 24.944C73.28 25.5093 73.1253 26.0373 72.816 26.528C72.5067 27.008 72.0267 27.3973 71.376 27.696C70.736 27.984 69.9253 28.128 68.944 28.128ZM79.1695 28.096C78.2628 28.096 77.4628 27.9093 76.7695 27.536C76.0868 27.1627 75.5535 26.6507 75.1695 26C74.7962 25.3493 74.6095 24.6027 74.6095 23.76C74.6095 22.9173 74.7908 22.1707 75.1535 21.52C75.5268 20.8693 76.0335 20.3627 76.6735 20C77.3242 19.6267 78.0548 19.44 78.8655 19.44C79.6868 19.44 80.4122 19.6213 81.0415 19.984C81.6708 20.3467 82.1615 20.8587 82.5135 21.52C82.8762 22.1707 83.0575 22.9333 83.0575 23.808C83.0575 23.872 83.0522 23.9467 83.0415 24.032C83.0415 24.1173 83.0362 24.1973 83.0255 24.272H75.8095V23.168H82.2255L81.6015 23.552C81.6122 23.008 81.5002 22.5227 81.2655 22.096C81.0308 21.6693 80.7055 21.3387 80.2895 21.104C79.8842 20.8587 79.4095 20.736 78.8655 20.736C78.3322 20.736 77.8575 20.8587 77.4415 21.104C77.0255 21.3387 76.7002 21.6747 76.4655 22.112C76.2308 22.5387 76.1135 23.0293 76.1135 23.584V23.84C76.1135 24.4053 76.2415 24.912 76.4975 25.36C76.7642 25.7973 77.1322 26.1387 77.6015 26.384C78.0708 26.6293 78.6095 26.752 79.2175 26.752C79.7188 26.752 80.1722 26.6667 80.5775 26.496C80.9935 26.3253 81.3562 26.0693 81.6655 25.728L82.5135 26.72C82.1295 27.168 81.6495 27.5093 81.0735 27.744C80.5082 27.9787 79.8735 28.096 79.1695 28.096ZM90.22 28V26.208L90.14 25.872V22.816C90.14 22.1653 89.948 21.664 89.564 21.312C89.1907 20.9493 88.6253 20.768 87.868 20.768C87.3667 20.768 86.876 20.8533 86.396 21.024C85.916 21.184 85.5107 21.4027 85.18 21.68L84.54 20.528C84.9773 20.176 85.5 19.9093 86.108 19.728C86.7267 19.536 87.372 19.44 88.044 19.44C89.2067 19.44 90.1027 19.7227 90.732 20.288C91.3613 20.8533 91.676 21.7173 91.676 22.88V28H90.22ZM87.436 28.096C86.8067 28.096 86.252 27.9893 85.772 27.776C85.3027 27.5627 84.94 27.2693 84.684 26.896C84.428 26.512 84.3 26.08 84.3 25.6C84.3 25.1413 84.4067 24.7253 84.62 24.352C84.844 23.9787 85.2013 23.68 85.692 23.456C86.1933 23.232 86.8653 23.12 87.708 23.12H90.396V24.224H87.772C87.004 24.224 86.4867 24.352 86.22 24.608C85.9533 24.864 85.82 25.1733 85.82 25.536C85.82 25.952 85.9853 26.288 86.316 26.544C86.6467 26.7893 87.1053 26.912 87.692 26.912C88.268 26.912 88.7693 26.784 89.196 26.528C89.6333 26.272 89.948 25.8987 90.14 25.408L90.444 26.464C90.2413 26.9653 89.884 27.3653 89.372 27.664C88.86 27.952 88.2147 28.096 87.436 28.096ZM94.5185 28V19.52H95.9905V21.824L95.8465 21.248C96.0812 20.6613 96.4758 20.2133 97.0305 19.904C97.5852 19.5947 98.2678 19.44 99.0785 19.44V20.928C99.0145 20.9173 98.9505 20.912 98.8865 20.912C98.8332 20.912 98.7798 20.912 98.7265 20.912C97.9052 20.912 97.2545 21.1573 96.7745 21.648C96.2945 22.1387 96.0545 22.848 96.0545 23.776V28H94.5185ZM104.59 28.096C103.726 28.096 102.952 27.9093 102.27 27.536C101.598 27.1627 101.07 26.6507 100.686 26C100.302 25.3493 100.11 24.6027 100.11 23.76C100.11 22.9173 100.302 22.1707 100.686 21.52C101.07 20.8693 101.598 20.3627 102.27 20C102.952 19.6267 103.726 19.44 104.59 19.44C105.358 19.44 106.04 19.5947 106.638 19.904C107.246 20.2027 107.715 20.6507 108.046 21.248L106.878 22C106.6 21.584 106.259 21.28 105.854 21.088C105.459 20.8853 105.032 20.784 104.574 20.784C104.019 20.784 103.523 20.9067 103.086 21.152C102.648 21.3973 102.302 21.744 102.046 22.192C101.79 22.6293 101.662 23.152 101.662 23.76C101.662 24.368 101.79 24.896 102.046 25.344C102.302 25.792 102.648 26.1387 103.086 26.384C103.523 26.6293 104.019 26.752 104.574 26.752C105.032 26.752 105.459 26.656 105.854 26.464C106.259 26.2613 106.6 25.952 106.878 25.536L108.046 26.272C107.715 26.8587 107.246 27.312 106.638 27.632C106.04 27.9413 105.358 28.096 104.59 28.096ZM114.453 19.44C115.146 19.44 115.754 19.5733 116.277 19.84C116.81 20.1067 117.226 20.512 117.525 21.056C117.823 21.6 117.973 22.288 117.973 23.12V28H116.437V23.296C116.437 22.4747 116.234 21.856 115.829 21.44C115.434 21.024 114.874 20.816 114.149 20.816C113.605 20.816 113.13 20.9227 112.725 21.136C112.319 21.3493 112.005 21.664 111.781 22.08C111.567 22.496 111.461 23.0133 111.461 23.632V28H109.925V16.128H111.461V21.808L111.157 21.2C111.434 20.6453 111.861 20.2133 112.437 19.904C113.013 19.5947 113.685 19.44 114.453 19.44ZM126.776 28.128C126.115 28.128 125.496 27.9893 124.92 27.712C124.344 27.4347 123.875 27.0347 123.512 26.512L124.44 25.424C124.75 25.8507 125.096 26.1813 125.48 26.416C125.875 26.64 126.307 26.752 126.776 26.752C128.056 26.752 128.696 25.9947 128.696 24.48V18.192H124.648V16.8H130.28V24.4C130.28 25.648 129.982 26.5813 129.384 27.2C128.798 27.8187 127.928 28.128 126.776 28.128ZM136.947 28.096C136.094 28.096 135.337 27.9093 134.675 27.536C134.014 27.1627 133.491 26.6507 133.107 26C132.723 25.3387 132.531 24.592 132.531 23.76C132.531 22.9173 132.723 22.1707 133.107 21.52C133.491 20.8693 134.014 20.3627 134.675 20C135.337 19.6267 136.094 19.44 136.947 19.44C137.79 19.44 138.542 19.6267 139.203 20C139.875 20.3627 140.398 20.8693 140.771 21.52C141.155 22.16 141.347 22.9067 141.347 23.76C141.347 24.6027 141.155 25.3493 140.771 26C140.398 26.6507 139.875 27.1627 139.203 27.536C138.542 27.9093 137.79 28.096 136.947 28.096ZM136.947 26.752C137.491 26.752 137.977 26.6293 138.403 26.384C138.841 26.1387 139.182 25.792 139.427 25.344C139.673 24.8853 139.795 24.3573 139.795 23.76C139.795 23.152 139.673 22.6293 139.427 22.192C139.182 21.744 138.841 21.3973 138.403 21.152C137.977 20.9067 137.491 20.784 136.947 20.784C136.403 20.784 135.918 20.9067 135.491 21.152C135.065 21.3973 134.723 21.744 134.467 22.192C134.211 22.6293 134.083 23.152 134.083 23.76C134.083 24.3573 134.211 24.8853 134.467 25.344C134.723 25.792 135.065 26.1387 135.491 26.384C135.918 26.6293 136.403 26.752 136.947 26.752ZM147.968 28.096C147.242 28.096 146.586 27.936 146 27.616C145.424 27.2853 144.965 26.8 144.624 26.16C144.293 25.52 144.128 24.72 144.128 23.76C144.128 22.8 144.298 22 144.64 21.36C144.992 20.72 145.456 20.24 146.032 19.92C146.618 19.6 147.264 19.44 147.968 19.44C148.8 19.44 149.536 19.6213 150.176 19.984C150.816 20.3467 151.322 20.8533 151.696 21.504C152.069 22.144 152.256 22.896 152.256 23.76C152.256 24.624 152.069 25.3813 151.696 26.032C151.322 26.6827 150.816 27.1893 150.176 27.552C149.536 27.9147 148.8 28.096 147.968 28.096ZM143.472 28V16.128H145.008V21.776L144.848 23.744L144.944 25.712V28H143.472ZM147.84 26.752C148.384 26.752 148.869 26.6293 149.296 26.384C149.733 26.1387 150.074 25.792 150.32 25.344C150.576 24.8853 150.704 24.3573 150.704 23.76C150.704 23.152 150.576 22.6293 150.32 22.192C150.074 21.744 149.733 21.3973 149.296 21.152C148.869 20.9067 148.384 20.784 147.84 20.784C147.306 20.784 146.821 20.9067 146.384 21.152C145.957 21.3973 145.616 21.744 145.36 22.192C145.114 22.6293 144.992 23.152 144.992 23.76C144.992 24.3573 145.114 24.8853 145.36 25.344C145.616 25.792 145.957 26.1387 146.384 26.384C146.821 26.6293 147.306 26.752 147.84 26.752Z" fill="#FF8500"/>
<path d="M64 30H152.928V30.8H64V30Z" fill="#FF8500"/>
<path d="M221.944 28.128C221.091 28.128 220.275 28 219.496 27.744C218.717 27.4773 218.104 27.136 217.656 26.72L218.248 25.472C218.675 25.8453 219.219 26.1547 219.88 26.4C220.541 26.6453 221.229 26.768 221.944 26.768C222.595 26.768 223.123 26.6933 223.528 26.544C223.933 26.3947 224.232 26.192 224.424 25.936C224.616 25.6693 224.712 25.3707 224.712 25.04C224.712 24.656 224.584 24.3467 224.328 24.112C224.083 23.8773 223.757 23.6907 223.352 23.552C222.957 23.4027 222.52 23.2747 222.04 23.168C221.56 23.0613 221.075 22.9387 220.584 22.8C220.104 22.6507 219.661 22.464 219.256 22.24C218.861 22.016 218.541 21.7173 218.296 21.344C218.051 20.96 217.928 20.4693 217.928 19.872C217.928 19.296 218.077 18.768 218.376 18.288C218.685 17.7973 219.155 17.408 219.784 17.12C220.424 16.8213 221.235 16.672 222.216 16.672C222.867 16.672 223.512 16.7573 224.152 16.928C224.792 17.0987 225.347 17.344 225.816 17.664L225.288 18.944C224.808 18.624 224.301 18.3947 223.768 18.256C223.235 18.1067 222.717 18.032 222.216 18.032C221.587 18.032 221.069 18.112 220.664 18.272C220.259 18.432 219.96 18.6453 219.768 18.912C219.587 19.1787 219.496 19.4773 219.496 19.808C219.496 20.2027 219.619 20.5173 219.864 20.752C220.12 20.9867 220.445 21.1733 220.84 21.312C221.245 21.4507 221.688 21.5787 222.168 21.696C222.648 21.8027 223.128 21.9253 223.608 22.064C224.099 22.2027 224.541 22.384 224.936 22.608C225.341 22.832 225.667 23.1307 225.912 23.504C226.157 23.8773 226.28 24.3573 226.28 24.944C226.28 25.5093 226.125 26.0373 225.816 26.528C225.507 27.008 225.027 27.3973 224.376 27.696C223.736 27.984 222.925 28.128 221.944 28.128ZM232.17 28.096C231.263 28.096 230.463 27.9093 229.77 27.536C229.087 27.1627 228.554 26.6507 228.17 26C227.796 25.3493 227.61 24.6027 227.61 23.76C227.61 22.9173 227.791 22.1707 228.154 21.52C228.527 20.8693 229.034 20.3627 229.674 20C230.324 19.6267 231.055 19.44 231.866 19.44C232.687 19.44 233.412 19.6213 234.042 19.984C234.671 20.3467 235.162 20.8587 235.514 21.52C235.876 22.1707 236.058 22.9333 236.058 23.808C236.058 23.872 236.052 23.9467 236.042 24.032C236.042 24.1173 236.036 24.1973 236.026 24.272H228.81V23.168H235.226L234.602 23.552C234.612 23.008 234.5 22.5227 234.266 22.096C234.031 21.6693 233.706 21.3387 233.29 21.104C232.884 20.8587 232.41 20.736 231.866 20.736C231.332 20.736 230.858 20.8587 230.442 21.104C230.026 21.3387 229.7 21.6747 229.466 22.112C229.231 22.5387 229.114 23.0293 229.114 23.584V23.84C229.114 24.4053 229.242 24.912 229.498 25.36C229.764 25.7973 230.132 26.1387 230.602 26.384C231.071 26.6293 231.61 26.752 232.218 26.752C232.719 26.752 233.172 26.6667 233.578 26.496C233.994 26.3253 234.356 26.0693 234.666 25.728L235.514 26.72C235.13 27.168 234.65 27.5093 234.074 27.744C233.508 27.9787 232.874 28.096 232.17 28.096ZM243.22 28V26.208L243.14 25.872V22.816C243.14 22.1653 242.948 21.664 242.564 21.312C242.191 20.9493 241.625 20.768 240.868 20.768C240.367 20.768 239.876 20.8533 239.396 21.024C238.916 21.184 238.511 21.4027 238.18 21.68L237.54 20.528C237.977 20.176 238.5 19.9093 239.108 19.728C239.727 19.536 240.372 19.44 241.044 19.44C242.207 19.44 243.103 19.7227 243.732 20.288C244.361 20.8533 244.676 21.7173 244.676 22.88V28H243.22ZM240.436 28.096C239.807 28.096 239.252 27.9893 238.772 27.776C238.303 27.5627 237.94 27.2693 237.684 26.896C237.428 26.512 237.3 26.08 237.3 25.6C237.3 25.1413 237.407 24.7253 237.62 24.352C237.844 23.9787 238.201 23.68 238.692 23.456C239.193 23.232 239.865 23.12 240.708 23.12H243.396V24.224H240.772C240.004 24.224 239.487 24.352 239.22 24.608C238.953 24.864 238.82 25.1733 238.82 25.536C238.82 25.952 238.985 26.288 239.316 26.544C239.647 26.7893 240.105 26.912 240.692 26.912C241.268 26.912 241.769 26.784 242.196 26.528C242.633 26.272 242.948 25.8987 243.14 25.408L243.444 26.464C243.241 26.9653 242.884 27.3653 242.372 27.664C241.86 27.952 241.215 28.096 240.436 28.096ZM247.519 28V19.52H248.991V21.824L248.847 21.248C249.081 20.6613 249.476 20.2133 250.031 19.904C250.585 19.5947 251.268 19.44 252.079 19.44V20.928C252.015 20.9173 251.951 20.912 251.887 20.912C251.833 20.912 251.78 20.912 251.727 20.912C250.905 20.912 250.255 21.1573 249.775 21.648C249.295 22.1387 249.055 22.848 249.055 23.776V28H247.519ZM257.59 28.096C256.726 28.096 255.952 27.9093 255.27 27.536C254.598 27.1627 254.07 26.6507 253.686 26C253.302 25.3493 253.11 24.6027 253.11 23.76C253.11 22.9173 253.302 22.1707 253.686 21.52C254.07 20.8693 254.598 20.3627 255.27 20C255.952 19.6267 256.726 19.44 257.59 19.44C258.358 19.44 259.04 19.5947 259.638 19.904C260.246 20.2027 260.715 20.6507 261.046 21.248L259.878 22C259.6 21.584 259.259 21.28 258.854 21.088C258.459 20.8853 258.032 20.784 257.574 20.784C257.019 20.784 256.523 20.9067 256.086 21.152C255.648 21.3973 255.302 21.744 255.046 22.192C254.79 22.6293 254.662 23.152 254.662 23.76C254.662 24.368 254.79 24.896 255.046 25.344C255.302 25.792 255.648 26.1387 256.086 26.384C256.523 26.6293 257.019 26.752 257.574 26.752C258.032 26.752 258.459 26.656 258.854 26.464C259.259 26.2613 259.6 25.952 259.878 25.536L261.046 26.272C260.715 26.8587 260.246 27.312 259.638 27.632C259.04 27.9413 258.358 28.096 257.59 28.096ZM267.453 19.44C268.146 19.44 268.754 19.5733 269.277 19.84C269.81 20.1067 270.226 20.512 270.525 21.056C270.823 21.6 270.973 22.288 270.973 23.12V28H269.437V23.296C269.437 22.4747 269.234 21.856 268.829 21.44C268.434 21.024 267.874 20.816 267.149 20.816C266.605 20.816 266.13 20.9227 265.725 21.136C265.319 21.3493 265.005 21.664 264.781 22.08C264.567 22.496 264.461 23.0133 264.461 23.632V28H262.925V16.128H264.461V21.808L264.157 21.2C264.434 20.6453 264.861 20.2133 265.437 19.904C266.013 19.5947 266.685 19.44 267.453 19.44ZM279.792 21.632H285.552V22.992H279.792V21.632ZM279.936 26.608H286.464V28H278.336V16.8H286.24V18.192H279.936V26.608ZM299.439 19.44C300.122 19.44 300.724 19.5733 301.247 19.84C301.77 20.1067 302.175 20.512 302.463 21.056C302.762 21.6 302.911 22.288 302.911 23.12V28H301.375V23.296C301.375 22.4747 301.183 21.856 300.799 21.44C300.415 21.024 299.876 20.816 299.183 20.816C298.671 20.816 298.223 20.9227 297.839 21.136C297.455 21.3493 297.156 21.664 296.943 22.08C296.74 22.496 296.639 23.0133 296.639 23.632V28H295.103V23.296C295.103 22.4747 294.911 21.856 294.527 21.44C294.154 21.024 293.615 20.816 292.911 20.816C292.41 20.816 291.967 20.9227 291.583 21.136C291.199 21.3493 290.9 21.664 290.687 22.08C290.474 22.496 290.367 23.0133 290.367 23.632V28H288.831V19.52H290.303V21.776L290.063 21.2C290.33 20.6453 290.74 20.2133 291.295 19.904C291.85 19.5947 292.495 19.44 293.231 19.44C294.042 19.44 294.74 19.6427 295.327 20.048C295.914 20.4427 296.298 21.0453 296.479 21.856L295.855 21.6C296.111 20.9493 296.559 20.4267 297.199 20.032C297.839 19.6373 298.586 19.44 299.439 19.44ZM310.233 28.096C309.529 28.096 308.884 27.936 308.297 27.616C307.721 27.2853 307.257 26.8 306.905 26.16C306.564 25.52 306.393 24.72 306.393 23.76C306.393 22.8 306.559 22 306.889 21.36C307.231 20.72 307.689 20.24 308.265 19.92C308.852 19.6 309.508 19.44 310.233 19.44C311.065 19.44 311.801 19.6213 312.441 19.984C313.081 20.3467 313.588 20.8533 313.961 21.504C314.335 22.144 314.521 22.896 314.521 23.76C314.521 24.624 314.335 25.3813 313.961 26.032C313.588 26.6827 313.081 27.1893 312.441 27.552C311.801 27.9147 311.065 28.096 310.233 28.096ZM305.737 31.104V19.52H307.209V21.808L307.113 23.776L307.273 25.744V31.104H305.737ZM310.105 26.752C310.649 26.752 311.135 26.6293 311.561 26.384C311.999 26.1387 312.34 25.792 312.585 25.344C312.841 24.8853 312.969 24.3573 312.969 23.76C312.969 23.152 312.841 22.6293 312.585 22.192C312.34 21.744 311.999 21.3973 311.561 21.152C311.135 20.9067 310.649 20.784 310.105 20.784C309.572 20.784 309.087 20.9067 308.649 21.152C308.223 21.3973 307.881 21.744 307.625 22.192C307.38 22.6293 307.257 23.152 307.257 23.76C307.257 24.3573 307.38 24.8853 307.625 25.344C307.881 25.792 308.223 26.1387 308.649 26.384C309.087 26.6293 309.572 26.752 310.105 26.752ZM316.644 28V16.128H318.18V28H316.644ZM324.744 28.096C323.891 28.096 323.134 27.9093 322.472 27.536C321.811 27.1627 321.288 26.6507 320.904 26C320.52 25.3387 320.328 24.592 320.328 23.76C320.328 22.9173 320.52 22.1707 320.904 21.52C321.288 20.8693 321.811 20.3627 322.472 20C323.134 19.6267 323.891 19.44 324.744 19.44C325.587 19.44 326.339 19.6267 327 20C327.672 20.3627 328.195 20.8693 328.568 21.52C328.952 22.16 329.144 22.9067 329.144 23.76C329.144 24.6027 328.952 25.3493 328.568 26C328.195 26.6507 327.672 27.1627 327 27.536C326.339 27.9093 325.587 28.096 324.744 28.096ZM324.744 26.752C325.288 26.752 325.774 26.6293 326.2 26.384C326.638 26.1387 326.979 25.792 327.224 25.344C327.47 24.8853 327.592 24.3573 327.592 23.76C327.592 23.152 327.47 22.6293 327.224 22.192C326.979 21.744 326.638 21.3973 326.2 21.152C325.774 20.9067 325.288 20.784 324.744 20.784C324.2 20.784 323.715 20.9067 323.288 21.152C322.862 21.3973 322.52 21.744 322.264 22.192C322.008 22.6293 321.88 23.152 321.88 23.76C321.88 24.3573 322.008 24.8853 322.264 25.344C322.52 25.792 322.862 26.1387 323.288 26.384C323.715 26.6293 324.2 26.752 324.744 26.752ZM331.402 31.2C330.997 31.2 330.602 31.1307 330.218 30.992C329.834 30.864 329.503 30.672 329.226 30.416L329.882 29.264C330.095 29.4667 330.33 29.6213 330.586 29.728C330.842 29.8347 331.114 29.888 331.402 29.888C331.775 29.888 332.085 29.792 332.33 29.6C332.575 29.408 332.805 29.0667 333.018 28.576L333.546 27.408L333.706 27.216L337.034 19.52H338.538L334.426 28.848C334.181 29.4453 333.903 29.9147 333.594 30.256C333.295 30.5973 332.965 30.8373 332.602 30.976C332.239 31.1253 331.839 31.2 331.402 31.2ZM333.418 28.272L329.546 19.52H331.146L334.442 27.072L333.418 28.272ZM343.513 28.096C342.607 28.096 341.807 27.9093 341.113 27.536C340.431 27.1627 339.897 26.6507 339.513 26C339.14 25.3493 338.953 24.6027 338.953 23.76C338.953 22.9173 339.135 22.1707 339.497 21.52C339.871 20.8693 340.377 20.3627 341.017 20C341.668 19.6267 342.399 19.44 343.209 19.44C344.031 19.44 344.756 19.6213 345.385 19.984C346.015 20.3467 346.505 20.8587 346.857 21.52C347.22 22.1707 347.401 22.9333 347.401 23.808C347.401 23.872 347.396 23.9467 347.385 24.032C347.385 24.1173 347.38 24.1973 347.369 24.272H340.153V23.168H346.569L345.945 23.552C345.956 23.008 345.844 22.5227 345.609 22.096C345.375 21.6693 345.049 21.3387 344.633 21.104C344.228 20.8587 343.753 20.736 343.209 20.736C342.676 20.736 342.201 20.8587 341.785 21.104C341.369 21.3387 341.044 21.6747 340.809 22.112C340.575 22.5387 340.457 23.0293 340.457 23.584V23.84C340.457 24.4053 340.585 24.912 340.841 25.36C341.108 25.7973 341.476 26.1387 341.945 26.384C342.415 26.6293 342.953 26.752 343.561 26.752C344.063 26.752 344.516 26.6667 344.921 26.496C345.337 26.3253 345.7 26.0693 346.009 25.728L346.857 26.72C346.473 27.168 345.993 27.5093 345.417 27.744C344.852 27.9787 344.217 28.096 343.513 28.096ZM353.31 28.096C352.403 28.096 351.603 27.9093 350.91 27.536C350.227 27.1627 349.694 26.6507 349.31 26C348.937 25.3493 348.75 24.6027 348.75 23.76C348.75 22.9173 348.931 22.1707 349.294 21.52C349.667 20.8693 350.174 20.3627 350.814 20C351.465 19.6267 352.195 19.44 353.006 19.44C353.827 19.44 354.553 19.6213 355.182 19.984C355.811 20.3467 356.302 20.8587 356.654 21.52C357.017 22.1707 357.198 22.9333 357.198 23.808C357.198 23.872 357.193 23.9467 357.182 24.032C357.182 24.1173 357.177 24.1973 357.166 24.272H349.95V23.168H356.366L355.742 23.552C355.753 23.008 355.641 22.5227 355.406 22.096C355.171 21.6693 354.846 21.3387 354.43 21.104C354.025 20.8587 353.55 20.736 353.006 20.736C352.473 20.736 351.998 20.8587 351.582 21.104C351.166 21.3387 350.841 21.6747 350.606 22.112C350.371 22.5387 350.254 23.0293 350.254 23.584V23.84C350.254 24.4053 350.382 24.912 350.638 25.36C350.905 25.7973 351.273 26.1387 351.742 26.384C352.211 26.6293 352.75 26.752 353.358 26.752C353.859 26.752 354.313 26.6667 354.718 26.496C355.134 26.3253 355.497 26.0693 355.806 25.728L356.654 26.72C356.27 27.168 355.79 27.5093 355.214 27.744C354.649 27.9787 354.014 28.096 353.31 28.096Z" fill="#938C8C"/>
<path d="M428.688 28.128C427.835 28.128 427.045 27.9893 426.32 27.712C425.605 27.424 424.981 27.024 424.448 26.512C423.925 25.9893 423.515 25.3813 423.216 24.688C422.917 23.9947 422.768 23.232 422.768 22.4C422.768 21.568 422.917 20.8053 423.216 20.112C423.515 19.4187 423.931 18.816 424.464 18.304C424.997 17.7813 425.621 17.3813 426.336 17.104C427.061 16.816 427.851 16.672 428.704 16.672C429.568 16.672 430.363 16.8213 431.088 17.12C431.824 17.408 432.448 17.84 432.96 18.416L431.92 19.424C431.493 18.976 431.013 18.6453 430.48 18.432C429.947 18.208 429.376 18.096 428.768 18.096C428.139 18.096 427.552 18.2027 427.008 18.416C426.475 18.6293 426.011 18.928 425.616 19.312C425.221 19.696 424.912 20.1547 424.688 20.688C424.475 21.2107 424.368 21.7813 424.368 22.4C424.368 23.0187 424.475 23.5947 424.688 24.128C424.912 24.6507 425.221 25.104 425.616 25.488C426.011 25.872 426.475 26.1707 427.008 26.384C427.552 26.5973 428.139 26.704 428.768 26.704C429.376 26.704 429.947 26.5973 430.48 26.384C431.013 26.16 431.493 25.8187 431.92 25.36L432.96 26.368C432.448 26.944 431.824 27.3813 431.088 27.68C430.363 27.9787 429.563 28.128 428.688 28.128ZM438.291 28.096C437.438 28.096 436.68 27.9093 436.019 27.536C435.358 27.1627 434.835 26.6507 434.451 26C434.067 25.3387 433.875 24.592 433.875 23.76C433.875 22.9173 434.067 22.1707 434.451 21.52C434.835 20.8693 435.358 20.3627 436.019 20C436.68 19.6267 437.438 19.44 438.291 19.44C439.134 19.44 439.886 19.6267 440.547 20C441.219 20.3627 441.742 20.8693 442.115 21.52C442.499 22.16 442.691 22.9067 442.691 23.76C442.691 24.6027 442.499 25.3493 442.115 26C441.742 26.6507 441.219 27.1627 440.547 27.536C439.886 27.9093 439.134 28.096 438.291 28.096ZM438.291 26.752C438.835 26.752 439.32 26.6293 439.747 26.384C440.184 26.1387 440.526 25.792 440.771 25.344C441.016 24.8853 441.139 24.3573 441.139 23.76C441.139 23.152 441.016 22.6293 440.771 22.192C440.526 21.744 440.184 21.3973 439.747 21.152C439.32 20.9067 438.835 20.784 438.291 20.784C437.747 20.784 437.262 20.9067 436.835 21.152C436.408 21.3973 436.067 21.744 435.811 22.192C435.555 22.6293 435.427 23.152 435.427 23.76C435.427 24.3573 435.555 24.8853 435.811 25.344C436.067 25.792 436.408 26.1387 436.835 26.384C437.262 26.6293 437.747 26.752 438.291 26.752ZM455.423 19.44C456.106 19.44 456.709 19.5733 457.231 19.84C457.754 20.1067 458.159 20.512 458.447 21.056C458.746 21.6 458.895 22.288 458.895 23.12V28H457.359V23.296C457.359 22.4747 457.167 21.856 456.783 21.44C456.399 21.024 455.861 20.816 455.167 20.816C454.655 20.816 454.207 20.9227 453.823 21.136C453.439 21.3493 453.141 21.664 452.927 22.08C452.725 22.496 452.623 23.0133 452.623 23.632V28H451.087V23.296C451.087 22.4747 450.895 21.856 450.511 21.44C450.138 21.024 449.599 20.816 448.895 20.816C448.394 20.816 447.951 20.9227 447.567 21.136C447.183 21.3493 446.885 21.664 446.671 22.08C446.458 22.496 446.351 23.0133 446.351 23.632V28H444.815V19.52H446.287V21.776L446.047 21.2C446.314 20.6453 446.725 20.2133 447.279 19.904C447.834 19.5947 448.479 19.44 449.215 19.44C450.026 19.44 450.725 19.6427 451.311 20.048C451.898 20.4427 452.282 21.0453 452.463 21.856L451.839 21.6C452.095 20.9493 452.543 20.4267 453.183 20.032C453.823 19.6373 454.57 19.44 455.423 19.44ZM466.218 28.096C465.514 28.096 464.868 27.936 464.282 27.616C463.706 27.2853 463.242 26.8 462.89 26.16C462.548 25.52 462.378 24.72 462.378 23.76C462.378 22.8 462.543 22 462.874 21.36C463.215 20.72 463.674 20.24 464.25 19.92C464.836 19.6 465.492 19.44 466.218 19.44C467.05 19.44 467.786 19.6213 468.426 19.984C469.066 20.3467 469.572 20.8533 469.946 21.504C470.319 22.144 470.506 22.896 470.506 23.76C470.506 24.624 470.319 25.3813 469.946 26.032C469.572 26.6827 469.066 27.1893 468.426 27.552C467.786 27.9147 467.05 28.096 466.218 28.096ZM461.722 31.104V19.52H463.194V21.808L463.098 23.776L463.258 25.744V31.104H461.722ZM466.09 26.752C466.634 26.752 467.119 26.6293 467.546 26.384C467.983 26.1387 468.324 25.792 468.57 25.344C468.826 24.8853 468.954 24.3573 468.954 23.76C468.954 23.152 468.826 22.6293 468.57 22.192C468.324 21.744 467.983 21.3973 467.546 21.152C467.119 20.9067 466.634 20.784 466.09 20.784C465.556 20.784 465.071 20.9067 464.634 21.152C464.207 21.3973 463.866 21.744 463.61 22.192C463.364 22.6293 463.242 23.152 463.242 23.76C463.242 24.3573 463.364 24.8853 463.61 25.344C463.866 25.792 464.207 26.1387 464.634 26.384C465.071 26.6293 465.556 26.752 466.09 26.752ZM477.814 28V26.208L477.734 25.872V22.816C477.734 22.1653 477.542 21.664 477.158 21.312C476.784 20.9493 476.219 20.768 475.462 20.768C474.96 20.768 474.47 20.8533 473.99 21.024C473.51 21.184 473.104 21.4027 472.774 21.68L472.134 20.528C472.571 20.176 473.094 19.9093 473.702 19.728C474.32 19.536 474.966 19.44 475.638 19.44C476.8 19.44 477.696 19.7227 478.326 20.288C478.955 20.8533 479.27 21.7173 479.27 22.88V28H477.814ZM475.03 28.096C474.4 28.096 473.846 27.9893 473.366 27.776C472.896 27.5627 472.534 27.2693 472.278 26.896C472.022 26.512 471.894 26.08 471.894 25.6C471.894 25.1413 472 24.7253 472.214 24.352C472.438 23.9787 472.795 23.68 473.286 23.456C473.787 23.232 474.459 23.12 475.302 23.12H477.99V24.224H475.366C474.598 24.224 474.08 24.352 473.814 24.608C473.547 24.864 473.414 25.1733 473.414 25.536C473.414 25.952 473.579 26.288 473.91 26.544C474.24 26.7893 474.699 26.912 475.286 26.912C475.862 26.912 476.363 26.784 476.79 26.528C477.227 26.272 477.542 25.8987 477.734 25.408L478.038 26.464C477.835 26.9653 477.478 27.3653 476.966 27.664C476.454 27.952 475.808 28.096 475.03 28.096ZM486.64 19.44C487.334 19.44 487.942 19.5733 488.464 19.84C488.998 20.1067 489.414 20.512 489.712 21.056C490.011 21.6 490.16 22.288 490.16 23.12V28H488.624V23.296C488.624 22.4747 488.422 21.856 488.016 21.44C487.622 21.024 487.062 20.816 486.336 20.816C485.792 20.816 485.318 20.9227 484.912 21.136C484.507 21.3493 484.192 21.664 483.968 22.08C483.755 22.496 483.648 23.0133 483.648 23.632V28H482.112V19.52H483.584V21.808L483.344 21.2C483.622 20.6453 484.048 20.2133 484.624 19.904C485.2 19.5947 485.872 19.44 486.64 19.44ZM493.003 28V19.52H494.539V28H493.003ZM493.771 17.888C493.472 17.888 493.222 17.792 493.019 17.6C492.827 17.408 492.731 17.1733 492.731 16.896C492.731 16.608 492.827 16.368 493.019 16.176C493.222 15.984 493.472 15.888 493.771 15.888C494.07 15.888 494.315 15.984 494.507 16.176C494.71 16.3573 494.811 16.5867 494.811 16.864C494.811 17.152 494.715 17.3973 494.523 17.6C494.331 17.792 494.08 17.888 493.771 17.888ZM501.248 28.096C500.341 28.096 499.541 27.9093 498.848 27.536C498.165 27.1627 497.632 26.6507 497.248 26C496.874 25.3493 496.688 24.6027 496.688 23.76C496.688 22.9173 496.869 22.1707 497.232 21.52C497.605 20.8693 498.112 20.3627 498.752 20C499.402 19.6267 500.133 19.44 500.944 19.44C501.765 19.44 502.49 19.6213 503.12 19.984C503.749 20.3467 504.24 20.8587 504.592 21.52C504.954 22.1707 505.136 22.9333 505.136 23.808C505.136 23.872 505.13 23.9467 505.12 24.032C505.12 24.1173 505.114 24.1973 505.104 24.272H497.888V23.168H504.304L503.68 23.552C503.69 23.008 503.578 22.5227 503.344 22.096C503.109 21.6693 502.784 21.3387 502.368 21.104C501.962 20.8587 501.488 20.736 500.944 20.736C500.41 20.736 499.936 20.8587 499.52 21.104C499.104 21.3387 498.778 21.6747 498.544 22.112C498.309 22.5387 498.192 23.0293 498.192 23.584V23.84C498.192 24.4053 498.32 24.912 498.576 25.36C498.842 25.7973 499.21 26.1387 499.68 26.384C500.149 26.6293 500.688 26.752 501.296 26.752C501.797 26.752 502.25 26.6667 502.656 26.496C503.072 26.3253 503.434 26.0693 503.744 25.728L504.592 26.72C504.208 27.168 503.728 27.5093 503.152 27.744C502.586 27.9787 501.952 28.096 501.248 28.096ZM509.701 28.096C508.997 28.096 508.325 28 507.685 27.808C507.055 27.616 506.559 27.3813 506.197 27.104L506.837 25.888C507.199 26.1333 507.647 26.3413 508.181 26.512C508.714 26.6827 509.258 26.768 509.812 26.768C510.527 26.768 511.039 26.6667 511.349 26.464C511.669 26.2613 511.829 25.9787 511.829 25.616C511.829 25.3493 511.733 25.1413 511.541 24.992C511.349 24.8427 511.093 24.7307 510.773 24.656C510.463 24.5813 510.117 24.5173 509.733 24.464C509.349 24.4 508.965 24.3253 508.581 24.24C508.197 24.144 507.845 24.016 507.525 23.856C507.205 23.6853 506.949 23.456 506.757 23.168C506.565 22.8693 506.469 22.4747 506.469 21.984C506.469 21.472 506.613 21.024 506.901 20.64C507.189 20.256 507.594 19.9627 508.117 19.76C508.65 19.5467 509.279 19.44 510.005 19.44C510.559 19.44 511.119 19.5093 511.685 19.648C512.261 19.776 512.73 19.9627 513.093 20.208L512.437 21.424C512.053 21.168 511.653 20.992 511.237 20.896C510.821 20.8 510.405 20.752 509.989 20.752C509.317 20.752 508.815 20.864 508.485 21.088C508.154 21.3013 507.989 21.5787 507.989 21.92C507.989 22.208 508.085 22.432 508.277 22.592C508.479 22.7413 508.735 22.8587 509.045 22.944C509.365 23.0293 509.717 23.104 510.101 23.168C510.485 23.2213 510.869 23.296 511.253 23.392C511.637 23.4773 511.983 23.6 512.293 23.76C512.613 23.92 512.869 24.144 513.061 24.432C513.263 24.72 513.365 25.104 513.365 25.584C513.365 26.096 513.215 26.5387 512.917 26.912C512.618 27.2853 512.197 27.5787 511.653 27.792C511.109 27.9947 510.458 28.096 509.701 28.096Z" fill="#938C8C"/>
</svg>
