<svg width="5" height="5" viewBox="0 0 5 5" fill="none" xmlns="http://www.w3.org/2000/svg">
<path d="M4.22361 2.53743C4.22378 2.93481 4.10477 3.32332 3.88162 3.65381C3.65848 3.9843 3.34123 4.24193 2.96999 4.39412C2.59876 4.54631 2.19022 4.58622 1.79605 4.5088C1.40187 4.43138 1.03978 4.24011 0.755546 3.95918C0.471317 3.67825 0.277725 3.32028 0.19926 2.93055C0.120794 2.54082 0.16098 2.13683 0.314731 1.76969C0.468482 1.40254 0.728891 1.08872 1.06303 0.867935C1.39716 0.647145 1.79001 0.529297 2.19188 0.529297C2.73058 0.529297 3.24722 0.74084 3.62822 1.11741C4.00922 1.49399 4.22337 2.00476 4.22361 2.53743Z" fill="#FF8500"/>
</svg>
